<?xml version="1.0" encoding="utf-8"?>
<!-- Generator: Adobe Illustrator 24.0.1, SVG Export Plug-In . SVG Version: 6.00 Build 0)  -->
<svg version="1.1" id="Layer_1" xmlns="http://www.w3.org/2000/svg" xmlns:xlink="http://www.w3.org/1999/xlink" x="0px" y="0px"
	 viewBox="0 0 100 100" style="enable-background:new 0 0 100 100;" xml:space="preserve">
<style type="text/css">
	.st0{fill:none;}
	.st1{clip-path:url(#SVGID_2_);}
	.st2{display:none;fill:#444444;}
	.st3{fill:url(#New_Pattern_Swatch_3);}
</style>
<pattern  y="100" width="33.4" height="33.4" patternUnits="userSpaceOnUse" id="New_Pattern_Swatch_3" viewBox="1 -34.4 33.4 33.4" style="overflow:visible;">
	<g>
		<rect x="1" y="-34.4" class="st0" width="33.4" height="33.4"/>
		
			<image style="overflow:visible;" width="512" height="512" xlink:href="2E99F57D.jpg"  transform="matrix(6.515625e-02 0 0 6.515625e-02 1 -34.36)">
		</image>
	</g>
</pattern>
<g>
	<g>
		<defs>
			<rect id="SVGID_1_" width="100" height="100"/>
		</defs>
		<clipPath id="SVGID_2_">
			<use xlink:href="#SVGID_1_"  style="overflow:visible;"/>
		</clipPath>
		<g class="st1">
			<rect x="-10" y="-5" class="st2" width="119" height="110"/>
			<rect x="27.1" y="77.5" class="st3" width="45.8" height="11.5"/>
			<polygon class="st3" points="66,52.9 66,64.4 54.5,64.4 54.5,75.9 77.4,75.9 77.4,64.4 88.9,64.4 88.9,52.9 			"/>
			<polygon class="st3" points="38.6,52.9 38.6,41.5 27.1,41.5 27.1,52.9 15.6,52.9 15.6,64.4 50,64.4 50,52.9 			"/>
			<polygon class="st3" points="71.7,39 71.7,27.6 71.7,27.5 71.7,16.1 60.2,16.1 60.2,27.5 60.2,27.6 60.2,39 60.2,50.5 71.7,50.5 
				83.2,50.5 83.2,39 			"/>
			<polygon class="st3" points="27.5,16.1 16,16.1 16,27.5 16,27.6 16,39 27.5,39 39,39 39,27.6 39,27.5 39,16.1 			"/>
		</g>
	</g>
</g>
<image style="display:none;overflow:visible;" width="512" height="512" id="Texture" xlink:href="2E99F583.jpg"  transform="matrix(6.515625e-02 0 0 6.515625e-02 114.6 19.84)">
</image>
</svg>
