<?xml version="1.0" encoding="utf-8"?>
<!-- Generator: Adobe Illustrator 24.0.1, SVG Export Plug-In . SVG Version: 6.00 Build 0)  -->
<svg version="1.1" id="Layer_1" xmlns="http://www.w3.org/2000/svg" xmlns:xlink="http://www.w3.org/1999/xlink" x="0px" y="0px"
	 viewBox="0 0 100 100" style="enable-background:new 0 0 100 100;" xml:space="preserve">
<style type="text/css">
	.st0{clip-path:url(#SVGID_2_);}
	.st1{fill:#444444;}
	.st2{fill:#FFFFFF;}
</style>
<g>
	<defs>
		<rect id="SVGID_1_" width="100" height="100"/>
	</defs>
	<clipPath id="SVGID_2_">
		<use xlink:href="#SVGID_1_"  style="overflow:visible;"/>
	</clipPath>
	<g class="st0">
		<rect x="-10" y="-5" class="st1" width="119" height="110"/>
		<g>
			<rect x="27.1" y="77.5" class="st2" width="45.8" height="11.5"/>
		</g>
		<g>
			<rect x="54.5" y="64.4" class="st2" width="22.9" height="11.5"/>
			<rect x="66" y="52.9" class="st2" width="22.9" height="11.5"/>
		</g>
		<g>
			<rect x="15.6" y="52.9" class="st2" width="34.4" height="11.5"/>
			<rect x="27.1" y="41.5" class="st2" width="11.5" height="11.5"/>
		</g>
		<g>
			<rect x="60.2" y="16.1" class="st2" width="11.5" height="11.5"/>
			<rect x="60.2" y="27.5" class="st2" width="11.5" height="11.5"/>
			<rect x="60.2" y="39" class="st2" width="11.5" height="11.5"/>
			<rect x="71.7" y="39" class="st2" width="11.5" height="11.5"/>
		</g>
		<g>
			<rect x="16" y="16.1" class="st2" width="11.5" height="11.5"/>
			<rect x="27.5" y="16.1" class="st2" width="11.5" height="11.5"/>
			<rect x="27.5" y="27.5" class="st2" width="11.5" height="11.5"/>
			<rect x="16" y="27.5" class="st2" width="11.5" height="11.5"/>
		</g>
	</g>
</g>
</svg>
