<?xml version="1.0" encoding="utf-8"?>
<!-- Generator: Adobe Illustrator 24.0.1, SVG Export Plug-In . SVG Version: 6.00 Build 0)  -->
<svg version="1.1" xmlns="http://www.w3.org/2000/svg" xmlns:xlink="http://www.w3.org/1999/xlink" x="0px" y="0px"
	 viewBox="0 0 701.5 701.5" style="enable-background:new 0 0 701.5 701.5;" xml:space="preserve">
<style type="text/css">
	.st0{fill:none;}
	.st1{clip-path:url(#SVGID_2_);}
	.st2{display:none;fill:#444444;}
	.st3{fill:url(#SVGID_3_);}
	.st4{fill:url(#SVGID_4_);}
	.st5{fill:url(#SVGID_5_);}
	.st6{fill:url(#SVGID_6_);}
	.st7{fill:url(#SVGID_7_);}
	.st8{display:none;}
	.st9{display:inline;fill:#FFFFFF;}
	.st10{fill:#FFFFFF;}
</style>
<pattern  y="701.5" width="249.6" height="250.6" patternUnits="userSpaceOnUse" id="New_Pattern_Swatch_1" viewBox="1 -251.6 249.6 250.6" style="overflow:visible;">
	<g>
		<rect x="1" y="-251.6" class="st0" width="249.6" height="250.6"/>
		
			<image style="overflow:visible;" width="1040" height="1044" xlink:href="7F077B83.jpg"  transform="matrix(0.24 0 0 0.24 1 -251.56)">
		</image>
	</g>
</pattern>
<g id="Layer_1">
	<g id="Layer_1_1_">
		<g>
			<g>
				<g>
					<defs>
						<rect id="SVGID_1_" x="40.3" y="40.3" width="620.9" height="620.9"/>
					</defs>
					<clipPath id="SVGID_2_">
						<use xlink:href="#SVGID_1_"  style="overflow:visible;"/>
					</clipPath>
					<g class="st1">
						<rect x="-21.8" y="9.3" class="st2" width="738.8" height="683"/>
						<pattern  id="SVGID_3_" xlink:href="#New_Pattern_Swatch_1" patternTransform="matrix(1 0 0 -1 366.7 -15707.0205)">
						</pattern>
						<rect x="208.6" y="521.5" class="st3" width="284.4" height="71.4"/>
						<pattern  id="SVGID_4_" xlink:href="#New_Pattern_Swatch_1" patternTransform="matrix(1 0 0 -1 366.7 -15707.0205)">
						</pattern>
						<polygon class="st4" points="450.1,368.7 450.1,440.1 378.7,440.1 378.7,511.5 520.9,511.5 520.9,440.1 592.3,440.1 
							592.3,368.7 						"/>
						<pattern  id="SVGID_5_" xlink:href="#New_Pattern_Swatch_1" patternTransform="matrix(1 0 0 -1 366.7 -15707.0205)">
						</pattern>
						<polygon class="st5" points="280,368.7 280,298 208.6,298 208.6,368.7 137.2,368.7 137.2,440.1 350.7,440.1 350.7,368.7 
													"/>
						<pattern  id="SVGID_6_" xlink:href="#New_Pattern_Swatch_1" patternTransform="matrix(1 0 0 -1 366.7 -15707.0205)">
						</pattern>
						<polygon class="st6" points="485.5,282.4 485.5,211.7 485.5,211 485.5,140.3 414.1,140.3 414.1,211 414.1,211.7 414.1,282.4 
							414.1,353.8 485.5,353.8 556.9,353.8 556.9,282.4 						"/>
						<pattern  id="SVGID_7_" xlink:href="#New_Pattern_Swatch_1" patternTransform="matrix(1 0 0 -1 366.7 -15707.0205)">
						</pattern>
						<polygon class="st7" points="211,140.3 139.6,140.3 139.6,211 139.6,211.7 139.6,282.4 211,282.4 282.4,282.4 282.4,211.7 
							282.4,211 282.4,140.3 						"/>
					</g>
				</g>
			</g>
		</g>
		
			<image style="display:none;overflow:visible;enable-background:new    ;" width="516" height="516" id="Texture" xlink:href="7F077B81.jpg"  transform="matrix(0.3046 0 0 0.3046 272.1353 212.2153)">
		</image>
		
			<image style="display:none;overflow:visible;" width="1040" height="1044" xlink:href="7F077B86.jpg"  transform="matrix(0.24 0 0 0.24 225.84 165.58)">
		</image>
	</g>
	<g id="Square" class="st8">
		<path class="st9" d="M146.1,173.7L146.1,173.7c-1.9,0.1-3.5-1.8-3.6-4.1l-0.8-21.9c-0.1-2.4,1.4-4.4,3.3-4.5l0,0
			c1.9-0.1,3.5,1.8,3.5,4.1l0.8,21.9C149.4,171.5,148,173.6,146.1,173.7z"/>
		<path class="st9" d="M144.7,218.7L144.7,218.7c-1.9-0.2-3.3-2.2-3.2-4.6l1.2-21.9c0.1-2.4,1.8-4.2,3.6-4l0,0
			c1.9,0.2,3.3,2.2,3.2,4.6l-1.2,21.9C148.2,217,146.6,218.8,144.7,218.7z"/>
		<path class="st9" d="M146.1,264L146.1,264c-1.9,0.1-3.5-1.8-3.6-4.1l-0.8-21.9c-0.1-2.4,1.4-4.4,3.3-4.5l0,0
			c1.9-0.1,3.5,1.8,3.5,4.1l0.8,21.9C149.4,261.8,148,263.8,146.1,264z"/>
		<path class="st9" d="M234.4,276.5L234.4,276.5c-0.1-2,1.8-3.7,4.2-3.8l22.2-0.5c2.4-0.1,4.3,1.6,4.4,3.6l0,0
			c0.1,2-1.8,3.7-4.2,3.8l-22.2,0.5C236.4,280.1,234.4,278.5,234.4,276.5z"/>
		<path class="st9" d="M189.2,274.3L189.2,274.3c0.2-2,2.3-3.5,4.7-3.4l22,1.6c2.4,0.2,4.2,2,4,4l0,0c-0.2,2-2.3,3.5-4.7,3.4
			l-22-1.6C190.7,278.2,188.9,276.4,189.2,274.3z"/>
		<path class="st9" d="M143.6,275.1L143.6,275.1c-0.1-2,1.8-3.7,4.2-3.8l22.2-0.5c2.4-0.1,4.3,1.6,4.4,3.6l0,0
			c0.1,2-1.8,3.7-4.2,3.8l-22.2,0.5C145.6,278.8,143.6,277.2,143.6,275.1z"/>
		<path class="st9" d="M244.8,147.8L244.8,147.8c-0.1-2,1.8-3.7,4.2-3.8l22.2-0.5c2.4-0.1,4.3,1.6,4.4,3.6l0,0
			c0.1,2-1.8,3.7-4.2,3.8l-22.2,0.5C246.8,151.4,244.8,149.8,244.8,147.8z"/>
		<path class="st9" d="M199.5,145.7L199.5,145.7c0.2-2,2.3-3.5,4.7-3.4l22,1.6c2.4,0.2,4.2,2,4,4l0,0c-0.2,2-2.3,3.5-4.7,3.4
			l-22-1.6C201.1,149.5,199.3,147.7,199.5,145.7z"/>
		<path class="st9" d="M153.9,146.5L153.9,146.5c-0.1-2,1.8-3.7,4.2-3.8l22.2-0.5c2.4-0.1,4.3,1.6,4.4,3.6l0,0
			c0.1,2-1.8,3.7-4.2,3.8l-22.2,0.5C156,150.1,154,148.5,153.9,146.5z"/>
		<path class="st9" d="M275.3,239.1L275.3,239.1c2,0.1,3.5,2.1,3.5,4.5l-0.5,21.9c0,2.4-1.7,4.3-3.6,4.2l0,0
			c-1.9-0.1-3.5-2.1-3.4-4.5l0.5-21.9C271.8,240.9,273.4,239,275.3,239.1z"/>
		<path class="st9" d="M274.5,198.4L274.5,198.4c2-0.1,3.6,1.8,3.7,4.1l0.8,21.9c0.1,2.4-1.4,4.4-3.4,4.5l0,0
			c-1.9,0.1-3.6-1.8-3.7-4.1l-0.8-21.9C271.1,200.5,272.6,198.5,274.5,198.4z"/>
		<path class="st9" d="M273.8,157.6L273.8,157.6c2,0.1,3.5,2.1,3.5,4.5l-0.5,21.9c0,2.4-1.7,4.3-3.6,4.2l0,0
			c-1.9-0.1-3.5-2.1-3.4-4.5l0.5-21.9C270.3,159.5,271.9,157.6,273.8,157.6z"/>
	</g>
</g>
<g id="New">
	<g id="Layer_3">
		<path class="st10" d="M436.5,147.4h-14.5c-1.4,0-2.6-1.2-2.6-2.6l0,0c0-1.4,1.2-2.6,2.6-2.6h14.5c1.4,0,2.6,1.2,2.6,2.6l0,0
			C439,146.3,437.9,147.4,436.5,147.4z"/>
	</g>
</g>
</svg>
